<?xml version="1.0" encoding="UTF-8"?>
<svg version="1.1" xmlns="http://www.w3.org/2000/svg" width="300" height="407">
<path d="M0 0 C6.6 0 13.2 0 20 0 C20 1.32 20 2.64 20 4 C21.98 4 23.96 4 26 4 C26 5.98 26 7.96 26 10 C26.99 10 27.98 10 29 10 C29 12.31 29 14.62 29 17 C30.32 17 31.64 17 33 17 C33 18.98 33 20.96 33 23 C35.97 23 38.94 23 42 23 C42 23.99 42 24.98 42 26 C45.3 26 48.6 26 52 26 C52 28.31 52 30.62 52 33 C53.32 33 54.64 33 56 33 C56 34.98 56 36.96 56 39 C56.99 39 57.98 39 59 39 C59 43.62 59 48.24 59 53 C59.99 53 60.98 53 62 53 C62 56.96 62 60.92 62 65 C63.98 65 65.96 65 68 65 C68 66.32 68 67.64 68 69 C73.61 69 79.22 69 85 69 C85 69.99 85 70.98 85 72 C86.98 72 88.96 72 91 72 C91 72.99 91 73.98 91 75 C92.32 75 93.64 75 95 75 C95 75.99 95 76.98 95 78 C97.97 78 100.94 78 104 78 C104 80.31 104 82.62 104 85 C105.32 85 106.64 85 108 85 C108 85.99 108 86.98 108 88 C109.98 88 111.96 88 114 88 C114 96.58 114 105.16 114 114 C113.01 114 112.02 114 111 114 C111 131.49 111 148.98 111 167 C118.59 167 126.18 167 134 167 C134 165.68 134 164.36 134 163 C134.99 163 135.98 163 137 163 C137 162.01 137 161.02 137 160 C140.3 160 143.6 160 147 160 C147 158.68 147 157.36 147 156 C149.97 156 152.94 156 156 156 C156 157.32 156 158.64 156 160 C158.31 160 160.62 160 163 160 C163 205.21 163 250.42 163 297 C162.01 297 161.02 297 160 297 C160 297.99 160 298.98 160 300 C159.01 300.33 158.02 300.66 157 301 C154.37774108 302.91626613 154.01461848 303.9322234 153.3125 307.1875 C153.209375 308.115625 153.10625 309.04375 153 310 C152.01 310 151.02 310 150 310 C150 312.97 150 315.94 150 319 C149.01 319 148.02 319 147 319 C147 320.32 147 321.64 147 323 C134.53187971 327.1560401 116.9753412 323.55027389 104 323 C104 322.01 104 321.02 104 320 C97.73 319.67 91.46 319.34 85 319 C85 318.34 85 317.68 85 317 C78.4 317 71.8 317 65 317 C65 317.66 65 318.32 65 319 C62.03 319.33 59.06 319.66 56 320 C56 320.99 56 321.98 56 323 C41.64133144 324.70357085 27.37144355 324.07021388 13 323 C13 322.01 13 321.02 13 320 C7.72 319.67 2.44 319.34 -3 319 C-3 318.34 -3 317.68 -3 317 C-4.32 317 -5.64 317 -7 317 C-7 317.66 -7 318.32 -7 319 C-10.96 319 -14.92 319 -19 319 C-19 320.32 -19 321.64 -19 323 C-22.63 323.33 -26.26 323.66 -30 324 C-30 324.66 -30 325.32 -30 326 C-34.07502794 326.07420211 -38.14979392 326.1286257 -42.2253418 326.16479492 C-43.61147919 326.17987397 -44.99756894 326.2003405 -46.38354492 326.22631836 C-48.37658146 326.26273716 -50.36996723 326.27813018 -52.36328125 326.29296875 C-53.56251221 326.3086792 -54.76174316 326.32438965 -55.99731445 326.34057617 C-59 326 -59 326 -60.85229492 324.66918945 C-62 323 -62 323 -63 320 C-64.91626613 317.37774108 -65.9322234 317.01461848 -69.1875 316.3125 C-70.115625 316.209375 -71.04375 316.10625 -72 316 C-72 315.01 -72 314.02 -72 313 C-80.58 313 -89.16 313 -98 313 C-98 313.99 -98 314.98 -98 316 C-101.3 316.33 -104.6 316.66 -108 317 C-108 317.66 -108 318.32 -108 319 C-108.99 319 -109.98 319 -111 319 C-111 318.34 -111 317.68 -111 317 C-114.3 316.67 -117.6 316.34 -121 316 C-121 315.01 -121 314.02 -121 313 C-121.99 313 -122.98 313 -124 313 C-124 312.01 -124 311.02 -124 310 C-124.99 310 -125.98 310 -127 310 C-128.0176403 304.98391475 -128.11856434 300.21391694 -128.0625 295.125 C-128.05798828 294.34125 -128.05347656 293.5575 -128.04882812 292.75 C-128.03714093 290.83329986 -128.01920908 288.91663952 -128 287 C-128.66 287 -129.32 287 -130 287 C-130.33 284.03 -130.66 281.06 -131 278 C-131.99 277.67 -132.98 277.34 -134 277 C-134 275.02 -134 273.04 -134 271 C-134.99 271 -135.98 271 -137 271 C-137 239.65 -137 208.3 -137 176 C-136.01 176 -135.02 176 -134 176 C-134 175.01 -134 174.02 -134 173 C-132.68 173 -131.36 173 -130 173 C-130 171.02 -130 169.04 -130 167 C-129.01 167 -128.02 167 -127 167 C-127 164.69 -127 162.38 -127 160 C-126.01 160 -125.02 160 -124 160 C-124 160.99 -124 161.98 -124 163 C-123.01 163 -122.02 163 -121 163 C-121 164.32 -121 165.64 -121 167 C-119.68 167 -118.36 167 -117 167 C-117 167.99 -117 168.98 -117 170 C-116.01 170 -115.02 170 -114 170 C-114 170.99 -114 171.98 -114 173 C-106.41 173 -98.82 173 -91 173 C-91 172.01 -91 171.02 -91 170 C-90.01 170 -89.02 170 -88 170 C-88 169.01 -88 168.02 -88 167 C-87.01 167 -86.02 167 -85 167 C-85 165.68 -85 164.36 -85 163 C-80.71 163 -76.42 163 -72 163 C-72 159.04 -72 155.08 -72 151 C-73.32 151 -74.64 151 -76 151 C-76 147.37 -76 143.74 -76 140 C-74.68 140 -73.36 140 -72 140 C-72 132.74 -72 125.48 -72 118 C-73.32 118 -74.64 118 -76 118 C-76.125 110.25 -76.125 110.25 -75 108 C-76.32 108 -77.64 108 -79 108 C-79 103.71 -79 99.42 -79 95 C-77.68 95 -76.36 95 -75 95 C-75 94.01 -75 93.02 -75 92 C-73.02 92 -71.04 92 -69 92 C-69 86.39 -69 80.78 -69 75 C-67.68 75 -66.36 75 -65 75 C-65 73.02 -65 71.04 -65 69 C-64.01 69 -63.02 69 -62 69 C-62 67.68 -62 66.36 -62 65 C-59.69 65 -57.38 65 -55 65 C-55 64.01 -55 63.02 -55 62 C-48.73 62 -42.46 62 -36 62 C-36 62.99 -36 63.98 -36 65 C-35.01 65 -34.02 65 -33 65 C-32.67 65.99 -32.34 66.98 -32 68 C-31.34 68.33 -30.68 68.66 -30 69 C-30 66.69 -30 64.38 -30 62 C-30.99 62 -31.98 62 -33 62 C-33 60.02 -33 58.04 -33 56 C-33.99 56 -34.98 56 -36 56 C-36.495 52.535 -36.495 52.535 -37 49 C-37.66 49 -38.32 49 -39 49 C-39 48.01 -39 47.02 -39 46 C-38.34 46 -37.68 46 -37 46 C-36.505 41.05 -36.505 41.05 -36 36 C-35.01 36 -34.02 36 -33 36 C-33 35.01 -33 34.02 -33 33 C-31.02 32.67 -29.04 32.34 -27 32 C-27 31.01 -27 30.02 -27 29 C-24.69 29 -22.38 29 -20 29 C-20 28.01 -20 27.02 -20 26 C-16.7 26 -13.4 26 -10 26 C-10 20.72 -10 15.44 -10 10 C-9.01 10 -8.02 10 -7 10 C-7 9.01 -7 8.02 -7 7 C-5.68 7 -4.36 7 -3 7 C-3 6.01 -3 5.02 -3 4 C-2.01 4 -1.02 4 0 4 C0 2.68 0 1.36 0 0 Z " fill="#FCFCFC" transform="translate(137,81)"/>
<path d="M0 0 C4.62 0 9.24 0 14 0 C14 1.32 14 2.64 14 4 C15.98 4 17.96 4 20 4 C20 4.99 20 5.98 20 7 C20.99 7 21.98 7 23 7 C23 8.98 23 10.96 23 13 C23.99 13 24.98 13 26 13 C26 19.6 26 26.2 26 33 C23.525 33.495 23.525 33.495 21 34 C21 35.98 21 37.96 21 40 C19.68 40 18.36 40 17 40 C17 40.99 17 41.98 17 43 C15.02 43 13.04 43 11 43 C11 43.99 11 44.98 11 46 C6.05 46 1.1 46 -4 46 C-4 45.01 -4 44.02 -4 43 C-5.98 43 -7.96 43 -10 43 C-10 42.01 -10 41.02 -10 40 C-10.99 40 -11.98 40 -13 40 C-13 38.02 -13 36.04 -13 34 C-14.32 34 -15.64 34 -17 34 C-17 28.06 -17 22.12 -17 16 C-15.68 16 -14.36 16 -13 16 C-13 14.02 -13 12.04 -13 10 C-12.01 10 -11.02 10 -10 10 C-10 8.68 -10 7.36 -10 6 C-8.02 6 -6.04 6 -4 6 C-4 5.01 -4 4.02 -4 3 C-2.68 3 -1.36 3 0 3 C0 2.01 0 1.02 0 0 Z " fill="#F1F1F1" transform="translate(104,55)"/>
<path d="M0 0 C3.3 0 6.6 0 10 0 C10 0.99 10 1.98 10 3 C10.99 3 11.98 3 13 3 C13 4.32 13 5.64 13 7 C13.99 7 14.98 7 16 7 C16.495 7.99 16.495 7.99 17 9 C17.99 9.33 18.98 9.66 20 10 C20.84234934 14.38556481 21.13478857 18.5364113 21.125 23 C21.12886719 24.7634375 21.12886719 24.7634375 21.1328125 26.5625 C21.00783333 29.79725504 20.6098924 32.82468717 20 36 C17.69 36 15.38 36 13 36 C13 36.99 13 37.98 13 39 C11.02 39 9.04 39 7 39 C7 40.32 7 41.64 7 43 C2.38 43 -2.24 43 -7 43 C-7 42.01 -7 41.02 -7 40 C-9.31 40 -11.62 40 -14 40 C-14 39.01 -14 38.02 -14 37 C-14.99 37 -15.98 37 -17 37 C-17 34.69 -17 32.38 -17 30 C-17.99 30 -18.98 30 -20 30 C-20 25.38 -20 20.76 -20 16 C-19.01 16 -18.02 16 -17 16 C-17 13.69 -17 11.38 -17 9 C-16.01 9 -15.02 9 -14 9 C-14 8.01 -14 7.02 -14 6 C-13.01 6 -12.02 6 -11 6 C-11 4.68 -11 3.36 -11 2 C-7.37 2 -3.74 2 0 2 C0 1.34 0 0.68 0 0 Z " fill="#EAEAEA" transform="translate(163,0)"/>
<path d="M0 0 C6.6 0.33 13.2 0.66 20 1 C20 1.99 20 2.98 20 4 C22.31 4 24.62 4 27 4 C28.1577506 7.47325181 28.06866652 10.36067448 28 14 C28.99 14 29.98 14 31 14 C31 18.62 31 23.24 31 28 C30.01 28 29.02 28 28 28 C27.67 30.97 27.34 33.94 27 37 C26.01 37.33 25.02 37.66 24 38 C23.505 38.99 23.505 38.99 23 40 C21.02 40 19.04 40 17 40 C17 41.32 17 42.64 17 44 C12.71 44 8.42 44 4 44 C4 42.68 4 41.36 4 40 C3.01 40 2.02 40 1 40 C1 39.34 1 38.68 1 38 C-0.32 38 -1.64 38 -3 38 C-3 36.68 -3 35.36 -3 34 C-4.32 34 -5.64 34 -7 34 C-7 32.02 -7 30.04 -7 28 C-7.99 28 -8.98 28 -10 28 C-10 23.38 -10 18.76 -10 14 C-9.01 14 -8.02 14 -7 14 C-7 11.69 -7 9.38 -7 7 C-5.68 7 -4.36 7 -3 7 C-3 6.01 -3 5.02 -3 4 C-2.01 4 -1.02 4 0 4 C0 2.68 0 1.36 0 0 Z " fill="#ECECEC" transform="translate(195,51)"/>
</svg>
