<?xml version="1.0" encoding="UTF-8"?>
<svg version="1.1" xmlns="http://www.w3.org/2000/svg" width="400" height="250">
<path d="M0 0 C132 0 264 0 400 0 C400 82.5 400 165 400 250 C328.72 250 257.44 250 184 250 C184.33 249.34 184.66 248.68 185 248 C185.5863623 247.98018066 186.17272461 247.96036133 186.77685547 247.93994141 C193.06143259 247.72551945 199.34555705 247.50004812 205.6295166 247.26823425 C210.12100455 247.10314124 214.61264231 246.94352867 219.10449219 246.78857422 C224.6899341 246.5954918 230.27498638 246.39309858 235.85992432 246.18597412 C238.11319404 246.10390501 240.36657472 246.02482584 242.62005615 245.9487915 C245.83559182 245.83973306 249.05056421 245.7198266 252.265625 245.59765625 C253.22931 245.56739853 254.192995 245.53714081 255.18588257 245.50596619 C260.74861276 245.28189615 265.63697111 244.48604167 271 243 C273.8984375 242.83984375 273.8984375 242.83984375 276.375 242.9375 C279.82536604 243.12772843 279.82536604 243.12772843 283 242 C285.04498425 242.08780403 287.08744948 242.24241538 289.125 242.4375 C290.22070312 242.53933594 291.31640625 242.64117187 292.4453125 242.74609375 C293.28835938 242.82988281 294.13140625 242.91367188 295 243 C292.72460109 238.64706296 291.12032489 236.79637014 286.5 235 C283.29757646 233.69785754 281.86454976 232.86769977 279.3125 230.375 C277.39176588 225.4359694 278.57665992 221.9745736 280 217 C280.2578125 216.02675781 280.515625 215.05351562 280.78125 214.05078125 C281.28104052 212.17906577 281.79173492 210.31020644 282.31640625 208.4453125 C282.91511451 206.30364753 283.47092351 204.15967287 284 202 C284.66666667 199.33333333 285.33333333 196.66666667 286 194 C286.66 194 287.32 194 288 194 C287.57709963 192.03846209 287.13618382 190.08080125 286.6875 188.125 C286.44386719 187.03445312 286.20023437 185.94390625 285.94921875 184.8203125 C285.22097942 181.70557647 285.22097942 181.70557647 282 180 C280.0843168 175.62310792 279.77822273 171.86708616 279.875 167.125 C279.89304687 165.97257813 279.91109375 164.82015625 279.9296875 163.6328125 C279.96449219 162.32957031 279.96449219 162.32957031 280 161 C279.34 161 278.68 161 278 161 C277.61328125 159.87980469 277.2265625 158.75960937 276.828125 157.60546875 C276.30276016 156.13257091 275.77668095 154.65992774 275.25 153.1875 C274.99734375 152.44951172 274.7446875 151.71152344 274.484375 150.95117188 C272.50993967 145.48459812 272.50993967 145.48459812 268 142 C260.53708833 138.71061473 253.39018891 136.45862352 245.20703125 136.3359375 C242.53258334 135.92885339 241.67647031 135.0641882 240 133 C240.48533203 132.19369141 240.48533203 132.19369141 240.98046875 131.37109375 C242.22903051 128.46735051 242.30056538 126.21721659 242.3125 123.0625 C242.33763672 121.53302734 242.33763672 121.53302734 242.36328125 119.97265625 C241.95117251 116.60045463 240.83370283 114.81855602 239 112 C238.62875 110.205625 238.62875 110.205625 238.25 108.375 C237.29674271 104.79337321 237.29674271 104.79337321 234.125 103.0625 C227.71893851 100.91371627 220.60154267 100.85897251 214.4375 103.5625 C209.56530088 108.43469912 208.80673244 112.61580417 208.5625 119.3125 C208.68432876 125.16704852 209.61325132 132.61325132 214 137 C214.296875 139.375 214.296875 139.375 214 142 C212.390625 143.625 212.390625 143.625 210.25 145 C206.82672959 147.33459784 204.52968054 149.69195622 202 153 C201.34 153 200.68 153 200 153 C200 153.66 200 154.32 200 155 C199.34 155 198.68 155 198 155 C195.5978396 159.8043208 195.38877771 164.73103895 195 170 C194.01 169.67 193.02 169.34 192 169 C191.40234375 166.7421875 191.40234375 166.7421875 190.9375 163.875 C189.44017555 157.95480947 187.09618983 155.58072366 181.9609375 152.42578125 C177.7893492 150.4170349 173.55180163 149.08987924 169.078125 147.921875 C161.13052905 145.54163053 161.13052905 145.54163053 158.625 142.125 C157.40615138 137.98091468 157.70280028 135.65631606 159.5 131.6875 C160.2425 130.3571875 160.2425 130.3571875 161 129 C161.99 129 162.98 129 164 129 C164.33923576 126.64655194 164.67150534 124.2924516 165 121.9375 C165.14308594 120.95233398 165.14308594 120.95233398 165.2890625 119.94726562 C166.65422216 112.06937605 166.65422216 112.06937605 164.6875 104.63671875 C164.130625 103.99347656 163.57375 103.35023437 163 102.6875 C160 99.15277778 160 99.15277778 160 97 C151.82317687 93.68186888 144.62340654 93.10407374 136 95 C135.82984375 95.71285156 135.6596875 96.42570312 135.484375 97.16015625 C133.26337278 105.93784057 133.26337278 105.93784057 130.875 109.625 C127.92989619 114.92618686 128 120.03603476 128 126 C128.99 126.33 129.98 126.66 131 127 C132.82736646 131.02020622 133.46770499 133.80655718 132 138 C129.27504423 143.58503332 126.40477123 145.04389177 120.62304688 147.078125 C119.69556641 147.38234375 118.76808594 147.6865625 117.8125 148 C109.46287501 150.79703548 101.29170178 153.65213722 95.80859375 160.89453125 C93.26581847 166.30607865 91.44195455 170.54753077 91.91796875 176.55859375 C92.09155256 181.72477862 91.02972983 186.94906243 90 192 C89.67 192.33 89.34 192.66 89 193 C87.37840301 200.57589844 86.51174355 208.27732456 86 216 C85.92265625 216.7940625 85.8453125 217.588125 85.765625 218.40625 C85.38436427 224.59114627 87.26537176 228.16335031 91 233 C91.43054688 233.56976563 91.86109375 234.13953125 92.3046875 234.7265625 C94.58982963 237.60782866 96.93966276 239.95977517 100 242 C99.34099246 245.07536854 98.46132217 247.07735566 97 250 C64.99 250 32.98 250 0 250 C0 167.5 0 85 0 0 Z " fill="#FDFEFE" transform="translate(0,0)"/>
</svg>
